<mxfile host="app.diagrams.net" agent="Mozilla/5.0 (Windows NT 10.0; Win64; x64) AppleWebKit/537.36 (KHTML, like Gecko) Chrome/130.0.0.0 Safari/537.36" version="24.8.3">
  <diagram name="第 1 页" id="hMRZ-Vqei99hXCUxnrxV">
    <mxGraphModel dx="777" dy="818" grid="1" gridSize="10" guides="1" tooltips="1" connect="1" arrows="1" fold="1" page="1" pageScale="1" pageWidth="827" pageHeight="1169" math="0" shadow="0">
      <root>
        <mxCell id="0" />
        <mxCell id="1" parent="0" />
        <mxCell id="rqhh65Q-fmULHEC79djK-2" value="" style="shape=image;verticalLabelPosition=bottom;labelBackgroundColor=default;verticalAlign=top;aspect=fixed;imageAspect=0;image=data:image/jpeg,/9j/4AAQSkZJRgABAQAAAQABAAD/4gIoSUNDX1BST0ZJTEUAAQEAAAIYAAAAAAQwAABtbnRyUkdCIFhZWiAAAAAAAAAAAAAAAABhY3NwAAAAAAAAAAAAAAAAAAAAAAAAAAAAAAAAAAAAAQAA9tYAAQAAAADTLQAAAAAAAAAAAAAAAAAAAAAAAAAAAAAAAAAAAAAAAAAAAAAAAAAAAAAAAAAAAAAAAAAAAAlkZXNjAAAA8AAAAHRyWFlaAAABZAAAABRnWFlaAAABeAAAABRiWFlaAAABjAAAABRyVFJDAAABoAAAAChnVFJDAAABoAAAAChiVFJDAAABoAAAACh3dHB0AAAByAAAABRjcHJ0AAAB3AAAADxtbHVjAAAAAAAAAAEAAAAMZW5VUwAAAFgAAAAcAHMAUgBHAEIAAAAAAAAAAAAAAAAAAAAAAAAAAAAAAAAAAAAAAAAAAAAAAAAAAAAAAAAAAAAAAAAAAAAAAAAAAAAAAAAAAAAAAAAAAAAAAAAAAAAAAAAAAFhZWiAAAAAAAABvogAAOPUAAAOQWFlaIAAAAAAAAGKZAAC3hQAAGNpYWVogAAAAAAAAJKAAAA+EAAC2z3BhcmEAAAAAAAQAAAACZmYAAPKnAAANWQAAE9AAAApbAAAAAAAAAABYWVogAAAAAAAA9tYAAQAAAADTLW1sdWMAAAAAAAAAAQAAAAxlblVTAAAAIAAAABwARwBvAG8AZwBsAGUAIABJAG4AYwAuACAAMgAwADEANv/bAEMACAYGBwYFCAcHBwkJCAoMFA0MCwsMGRITDxQdGh8eHRocHCAkLicgIiwjHBwoNyksMDE0NDQfJzk9ODI8LjM0Mv/bAEMBCQkJDAsMGA0NGDIhHCEyMjIyMjIyMjIyMjIyMjIyMjIyMjIyMjIyMjIyMjIyMjIyMjIyMjIyMjIyMjIyMjIyMv/AABEIAicA+AMBIgACEQEDEQH/xAAfAAABBQEBAQEBAQAAAAAAAAAAAQIDBAUGBwgJCgv/xAC1EAACAQMDAgQDBQUEBAAAAX0BAgMABBEFEiExQQYTUWEHInEUMoGRoQgjQrHBFVLR8CQzYnKCCQoWFxgZGiUmJygpKjQ1Njc4OTpDREVGR0hJSlNUVVZXWFlaY2RlZmdoaWpzdHV2d3h5eoOEhYaHiImKkpOUlZaXmJmaoqOkpaanqKmqsrO0tba3uLm6wsPExcbHyMnK0tPU1dbX2Nna4eLj5OXm5+jp6vHy8/T19vf4+fr/xAAfAQADAQEBAQEBAQEBAAAAAAAAAQIDBAUGBwgJCgv/xAC1EQACAQIEBAMEBwUEBAABAncAAQIDEQQFITEGEkFRB2FxEyIygQgUQpGhscEJIzNS8BVictEKFiQ04SXxFxgZGiYnKCkqNTY3ODk6Q0RFRkdISUpTVFVWV1hZWmNkZWZnaGlqc3R1dnd4eXqCg4SFhoeIiYqSk5SVlpeYmZqio6Slpqeoqaqys7S1tre4ubrCw8TFxsfIycrS09TV1tfY2dri4+Tl5ufo6ery8/T19vf4+fr/2gAMAwEAAhEDEQA/APn+iitrw/LbrHqkNwLYLJZOFeZFJVgRjaTyD9OTQBi0V3GsxaBJBpkVnfaaLRYnheYQyeaEEy/vCMAmQgscHjGQOgrcs20JtShmtf7Nli+wwoIofLRlUTOCWMygE7AN5xuOc8DNAHldFbsoiTRNaSJ4mUajBsMfCsoE/Kg846fpWz4hgt7jS1jtRYbPNRtP8po1fyBCxk3Ec5yF+9zu3Y5zQBxNFelI+kmzsn1xbbZHZyo8cTQM8pzGRKrIAcfw7T82FbBySayo7exN2YdQ+yTyXt6f+PJo1URRxkps5G1WZ14yGIQjrQBxYUkEgEgDJ9qCpABIIB5HvXovhopZX+vaTZNFK/mRvDFAEnZ1DfOY94AkdQchD/tEcgEUPH105ttMspsJcx+bJJC0SJIilvkLqnCOwGWQcdCRkkkA4iirO21FjkOxuS3KkcAc96rUAFFFFABRRRQAUUUUAKqs7hEUszHAAGSTQQVJBBBHUGus+Hp0seJbX7ft837RD5XmglMbxnG35vMzt244654rY8VNo5+I+mmYqWF3H9vM2wrs3L/riODL97zD06e9AHnVLg4zg49a9x8czWn/AAiOpG4bwhIQIjAum+V5hk8xOm35sY357Yrgl+2eLdPuJnisrOAF2MrT4G6OJpCqxk5yQMZ6fdHagDiqK9S1jw7oGheFdbis5ILi5WKRBO8is7bbuJVKjPynbn7vUZrsdMl0r/hHrAGTwb/Zv2JPNEvlfaNvljfuz82/O7pznFAHz6AScAZNJ0Ndd4bS7TRJTbnTmNzcpEkb3Hl3DPkKNpzhf9YSC2AOT2rb07wdps88uoavd2pabdILSG4G1N0VycFs5JDQr04O4etAHm1GK9JdbGL4j6gtsLZEFtb+SItgH3Yd+ztu27+nPXvXbo2heRFlpd/ktvJd8hsDB69c54rGpW5Hblb9EZynyu1mz5/orsdVFvJb6VHrTH+1DcYlbcpxb7v49mTu9O+M+1ZfjGXSpfFd+dFWNdPV9sPlghSAAMjJ6ZFbGhhUUUUAdJ/ZFn/cb/vs0f2RZ/3G/wC+zV6prS0uL+7itLSF57iZgkcaDJY+gqLjMv8Asiz/ALjf99mj+yLP+43/AH2a3dXsINMvRaQ3sd5JGgE7xD92snOVVv4gOBu4BOcetUKLsCj/AGRZ/wBxv++zR/ZFn/cb/vs1eoouBR/siz/uN/32aP7Is/7jf99mr1FFwKP9kWf9xv8Avs0f2RZ/3G/77NXqKLgUf7Is/wC43/fZo/siz/uN/wB9mr1FFwKP9kWf9xv++zR/ZFn/AHG/77NXqKLgUf7Is/7jf99mj+yLP+43/fZq9RRcCj/ZFn/cb/vs0f2RZ/3G/wC+zV6ii4FEaTaKQQrgjkEOaP7Isz/A3/fZq9RRcCj/AGRZ/wBxv++zR/ZFn/cb/vs1eoouBR/sez/uN/30aP7Is/7jf99mr1FFwKP9kWf9xv8Avs0n9j2f9xv++jV+ii4FH+yLP+43/fZpP7Hs/wC43/fRq/RRcCj/AGRZ/wBxv++zR/ZFn/cb/vs1eoouBR/siz/uN/32aKvUUXAK1vD2tDRb+SSSEzW1zC1tcIjbJPLbrsfqre/foeDWTRQBf1fT4NPvAlpexXlpKglgmTglD0Dr/A4xgr/QiqFFFIAooooAKKKKACiiigAooooAKKKKACiiigAooooAKKKKACiiigAooooAKKKKACiiigAooooAKKKKACiiigAooooAKKKKACiiigAooooAKKKKACiiigAooooAKKKKACiiigAooooAKKKKACiiigAooooAKKKKACiiigAooooAKKKKACiiigAooooAKKKKACiiigAooooAKKKKACiiigAooooAKKKKACiiigAooooAKKKKACiiigAooooAKKKKACiiigAooooAKKKKACiiigAooooAKKKKACiiigAooooAKKKKACiiigAooooAKKKKACiiigAooooAKKKKACiiigAooooAKKKKACiiigAooooAKKKKACiiigAooooAKKKKACiiigAooooAKKKKACiiigAooooAKKKKACiiigAooooAKKKKACiiigAooooAKKKKACiiigAooooAKKKKACiiigAooooAKKKKACiiigAooooAKKKKACiiigAooooA91svgn4fubG3nfUNTDSRK5AePAJAP92rH/CjPDv/AEENU/77j/8AiK9D0r/kD2X/AF7x/wDoIq5V2QjzD/hRnh3/AKCGqf8Afcf/AMRR/wAKM8O/9BDVP++4/wD4ivQdT1SLS4onkhuZjK/lpHbQmRicE9B2wDWd/wAJVF/0B9b/APBdJRZAcf8A8KM8O/8AQQ1T/vuP/wCIo/4UZ4d/6CGqf99x/wDxFdWnjO0kuJbdNM1lpogrSINPkyobOCfrg/lUv/CVRf8AQH1z/wAF0lFkBx//AAozw7/0ENU/77j/APiKP+FGeHf+ghqn/fcf/wARXWQeMrW6gSeDS9akicZV10+TBpZfGFtAgeXStaRSyqCdPk6sQAPxJA/GiyA5L/hRnh3/AKCGqf8Afcf/AMRR/wAKM8O/9BDVP++4/wD4iuw/4SqL/oD63/4LpKYfGFsJhCdK1rzSpcL/AGfJkgEAn9R+dFkByX/CjPDv/QQ1T/vuP/4ij/hRnh3/AKCGqf8Afcf/AMRXYf8ACVxf9AfXP/BdJTI/F9vKGMela021ipxp8nBHUUWQHJf8KM8O/wDQQ1T/AL7j/wDiKP8AhRnh3/oIap/33H/8RXWy+L7eGJ5ZNK1tI0UszHTpMADqaf8A8JVF/wBAfW//AAXSUWQHH/8ACjPDv/QQ1T/vuP8A+Io/4UZ4d/6CGqf99x//ABFdZJ4xtYpIo5NL1pXmYpGDp8nzMAWwPwBP4VJ/wlUX/QH1z/wXSUWQHH/8KM8O/wDQQ1T/AL7j/wDiKP8AhRnh3/oIap/33H/8RXWL4xtXmkhXS9aMsYBdRp8mVz0/PBqT/hKov+gPrf8A4LpKLIDj/wDhRnh3/oIap/33H/8AEUf8KM8O/wDQQ1T/AL7j/wDiK62HxhbTwpLDpWtPG4yrDTpMEUSeL7eJQ0mla2oLBQTp0nUnAH4kgUWQHJf8KM8O/wDQQ1T/AL7j/wDiKP8AhRnh3/oIap/33H/8RXYf8JVF/wBAfW//AAXSUz/hL7fzhF/ZWteYV3bf7PkzjOM0WQHJf8KM8O/9BDVP++4//iKP+FGeHf8AoIap/wB9x/8AxFdh/wAJVF/0B9b/APBdJUUPjO0uPM8nTNZfy3Mb7dPk+Vh1BosgOU/4UZ4d/wCghqn/AH3H/wDEUf8ACjPDv/QQ1T/vuP8A+IrrZvGFtbwSTTaVrSRRqXdjp8mFAGSacPFcLAEaRrZB5B/s6SiyA5D/AIUZ4d/6CGqf99x//EUf8KM8O/8AQQ1T/vuP/wCIrrX8YW0bxo+la0rSsVQHT5PmIBOB+AJ/Cn/8JXF/0B9c/wDBdJRZAcf/AMKM8O/9BDVP++4//iKP+FGeHf8AoIap/wB9x/8AxFd9pesQ6r54jgu4HhYB0uYGibkZBAPUVo0WQHmH/CjPDv8A0ENU/wC+4/8A4iivT6KLICnpX/IHsv8Ar3j/APQRVyqelf8AIHsv+veP/wBBFXKYGdqH/IR0r/ru/wD6KetHA9KyNau4rK60uabfsFww+SNnPMT9lBNL/wAJJpv966/8Apv/AIigDGm1EaT4h8RXpjRxHBYgq8gQYJkB5P1/GnReNBJqq2X2KMBpxHv8/naZBGOMffydxXsvOapW/iHRl8W62btpDFJBaYWSzlOceZ2Ke9bA8U+HN4IkO7fvB+xS/exjP3OuOM0rruFzL0nXTpPhrTIUto5pJLOaWNTOqFmRh8uD2O7r2xRL4mTW7YwpAqKs9q6sr5JxcRA5UgFeTx6gGl8L6xpB8MaeJ45ZGERGTYyvwSe+zpVjXNb0r+zVEKzIxurXJFlKuQsyf7HYdKAGXnjgWlzcx/Yopo4Jnj3xXGS+0gFVG3lwWGV6deTg06HXRPMNVkS3i8mxuN2Z8xfLInO/H3ffHrWkNa0VX3iKUNu35Gny53ev3OvJ5rPfWtJGvwKEmEAspFKfYZccunbZQBVk8ePEh87TI45CgkVWuR8y7NzcgcHsAeSSOlWp9d/sK3llMCTLLqMqMvmbXA3DlRg56j0/Wrw1jQ1BCwSAcdNOl7dP4O3aqema3pZFy0qzsy3sroTZSnac9R8nBoGUZfF51OyvbI2kSb7WYF0n38+W7ZXgZXC4J7McVf1XxY2lahJaCzilWONHLi4wVUkbty46gHOBknj1o1bWtIGh34ijmVvskqKRYyrgFTxnZwM1c/trRnG54pWZgu4nT5TnHTPydqBGSNdXV9U0mQwiJINQfBV92VNvN144b5eV7ZFRRfEJLgnyrBAPMMQ8242kEswVmG3hcLlj/DkDmrGq65pn9raE0YnUC+d3xZSjJMEoz9zk9K1W13R5CS8c7EqVJNhMcg9R9zoaBmEfE0WnJqutvbM3mW1o6whu7K5wWxwOpzj+dXIPGYmv47U2SKzXPlHM3OwuqqRxhmO7cVzwAc02w17Tl8Rauf8ASNjR24AFnL2Vu2ytMa3o4YMI5g2/fn7BL948E/c6+9AGJb+JToulaXbm1R1ltQVkaXaN5YgA8HA4JLHgAVLB4mGup5P2VYQs1u4Ik3HieMHIwMA5yp7jnin6BrOk/wDCP2AmSZ3EGzJsZW4PUZ2dDU2p65pQtU8tZ1Y3NvkixlGQJV/2PSgRDP41+zXEsctgAsU8kb7ZdxCj7hAA5LHsOnfFNXxFlZNYe2VjDZS5jhk3qxWRR8rY5Hvj19K1RrejB94imDBy+fsEudxGCfudfeqH9t6UuuoqrOsP2Nl2CylA5cdtnSgCi/xBVelhEwKsc/aMcooZs5XjOcL/AHiD0pIPEK6HcXcbW/mfadVuQWLYCgbPY8ksP1rd/trRduPKlxhR/wAg+X+H7v8AB27elZGga1pgbVDMs7f8TSZ0zZytjhefucGmBXvfF39p6Ne2hs0jeSwnEmJdxRxHISAMfMo24LA4yRWjfeJ5tKk8gWcEsUcMTGRrgptLKxAb5eCQjYwT/D603XdY0hfDeppDHKjfYpkTFjKuAUPGdnAzV6HXdJa0jSRZ2BRMg2MxBwBj+CkBn2eu/wBu6hpkgtxF5d220b9xw0EuA3HysMcjnHFM/wCE1mRgJtPt0WQHyJRckpIfMKAk7cqvBOSOnrRrHifQ7G90q5mme2hW6dpJHtZUGTC4ySV5JOKVviB4JY5bVLU/KU5gf7p6j7vT2pOSW7NYUak1eEW15I09Buxf3l3eBPLE8NvJsznGUJxnvW7XOeGtY07W9R1W60u4We3UwpvVSACEPHIHqK6OqTvqjOUXF2krMKKKKBFPSv8AkD2X/XvH/wCgirlU9K/5A9l/17x/+girlAGdqH/IS0r/AK7v/wCinrLk8Z2sbIpsbze7eWFIQHzC7oqH5upMbc9B3NXtZuoLO70ua5lWKMXDgsxwMmJ6zlXwaqkAabgqy9jwxyfzOT+JpAc9d6nHL4g1LUY0lMUlnZyBeNwB8zrz2qSHVY5r7yI/MbbN5RcEbchd3r04I+oqpfXejzeJ9UgSa3a0FraIqLnaAvmccenFPWfR/tEcu+AOrhwwBBz0zx14rgqxbmzmqJ8x0HhfUksPBWlGSOVx9lZ8rjHyt069ef0qfUtXi1DTFEccqD7TaspbHzf6RGD0PYmsrwrqvhxvCelLe31n50UBTDy4K5JyP0H5VZ1fV/DcengWl9YiRrq1B2OMkCZD/ia7k9DpR0EmriO5aH7LMxWUR5UqckjjHP446gcmqUd8LjWobpYnGLGfMZYA5WVARnOO3Wg33hkymQ3Npv3s+d/c9fz71RbUtAGtxQC7tfsxsZVZd2QcyJnP15pgX38VWiI7NDOuwAtnAxkZPfnAI+uRTrK8+xxXLtG7q+oyRkqR8uWwDyfU0w33hkkk3NmSduSXznb0z6//AFqqafquhTLc/aLy1bbeyuu5v9qgCzqesw3Ok6hbKkkcjWMsmHwMcMMdevyk1bvNch0+ZIJoZcsqlGGMNnr34x7+lZOqX/h2HRL829zaCQWkyKQ2TypOPzJ/Or0moeG5zvmubN3ZVBLN6UxkF9qMF9q+iNAxKQ6nJEzZGGxbSnI56c1oR67BPE0kMUjoFkIbKgHYwB5J4zkEZ7flWJqeraImr6EYLu0RftzvJsIGf9HlGTj8BWhJeeF5PvT2XQjAOByQT09SAfwpCIIdUhs9V1m+mEip5FqwjPDklX+XBPWtGLXrea48qOORsS+WW4wBuCBuvQscVjWmq6JJr+sJNd2rwNFbqFchgcK/rWkuoeGxMJVuLISB94bPO71oAr6NqqWWg6bE8UrF7cFSMAM2cBQT3NPuNah1GHyY0lR47i2Y78cjz1B6H1H49RVLQ9R0CXw9p4urq1Z1g2/M3QGptQ1TQIbVPs93aIzXNsDtbssq0DNSXXYYZnjeCcbJGRjt6AdD9CeB6mqK6vA9/wD2kQ4iSykLLwTlZACBjg8ipm1Hw20pka6sy5feSX6mqQ1XQl1lIVu7X7P9idCu7jlxmgRek8T20aqWgmwx2gjByRjcOvbIqjo+pw2EmpLKGJm1adRjtgLkn/PerJu/C+P9dY9B/F6f559e9Zmh6nocp1X7Vd2rAapM6b2/3eaYGhrGqreeGtRVYJV8zT7hzuIymEIIYZyDyKutq62aRRNbyviFX3KVxjaSep9FY/hWVrWqaDF4Z1VLa7tVZrKZRtbk5VuPzNSr4k8JT2caz6xpL5RNwa4TnA47+5/Ok2luVGMpbK5zHxZu/tXhe2xG6CPUgmSQQ37tzkYPvXjRuQucgj+tes/FPXtDvvDtlBp2p2U8n27zCkEqsfuPk4Huf1ryYtAerKa8jG2dX5H6Bw1zRwTV7Pme/oj2X4LndpGrH1ul/wDRYr06vL/gqyNpOrhCDi6Tp/1zFeoV6WH/AIUT47N3fHVfUKKKK2POKelf8gey/wCveP8A9BFXKp6V/wAgey/694//AEEVcoAztQ/5CWlf9d3/APRT1Qbxfp6usZiuxIyFlQx4ZiJDHsAJ5YsDx+JxVvVpore+0qSaVI0Fw43OwUf6p+5qgNO8K7AhktSo3EBrwnBYklhluGySc9Rk4oAg0vUoH8QazqC+Y0D2lk4wvzYPmdvbvWumvWkt21sizF0l8pjt4U7guTz0yQPXn0rBsJNH/wCEi1q0NzbJafZbNEVbgKML5nAIOfSthf8AhH1nEwubTzA+/P2kdc5/vdM846Z5pAcLpd+tro1krpK25JCCi56MxI69cCrM18k8tvGgkBW6tHywwCDMmMVn6S+mS6RatLd24kETxn/SQp2l2yOtWJH0y2Nv5F3bjdeWpb/SAekqep9BXnr+J8zm+2egT65a21y8EyzIVYgsVG3pnOc/p19qqrdibX4Z1jmG2ymBjI+YESJkYzjP41IzaA/mBru1ZZJDI6m6+VmPXI3Y/DpwKoPPow1uK2+12v2ZrGZWBuRzmRM5Oc816B0mjD4hsp32KJgx28Ff7xC569AWHPvxmo7K9SzhuWkWRlfUJIwUGcEtgd/U9qVjoDksby2LYUbvtfPynK87vUA/hVWxudIuIrtbm8tWX7bKwBuAAfm74PI9jTAk1HWLe80fU4EWVJBZzEh8DoGBHXk5B6Vcu9ctdPkEVwswbarAgDBzx6/57ZrN1WTRItE1Bobu2MgtZtuboNyVOTy3XtnrVyVtBumEk91au+0DP2kccY4w3Gehx1pDKt9fx3mr6CYhIoW/cHeMZBt5sEex5rQGu2rLuRJ3Q+Zhgowdmc9T7Zz06eorI1G40iDVdC+z3VoqG+dnxOpH/HvKPXgdsdK0EXw7GzmOayQOpVlSdQpBOTkA4oEVbfUYbXV9ZvZvMSMQWzbSvzcq/GPX2rVOrQLdC2dJlkM3krlcgnG7PB6Yxz7isWK50e71/Wo7u4spYJI7cbZJUIPyv7+9ajT6C8iO09gzpJ5iMZUJVj3BzQBT0LUorfRNNt2WV5WtfMAXHIHYZI5qW91KK9tUWNJVIntZAXGMq0y47+1UdGk0W68N6el3d2zYgA2m5A9ewbryefc1PqFzpEFrmC+t90l3bs+boNkiVOeW9B+lMZoya3bRmXKTERSmJ8AcEc5xnOODzjtVNtShXVTeyeZHFHZSF1cfMu2QZGPWrJm0NpHka6tGZzklrgHsRjk8DDNx7mqHn6OusLbi6tTbmzdSDcA5y4JySc5pCNCXX7OKMO4mCnZg4BzvBIwc8/dPTvWXo2pW+nvqYuHI83Vp1Xn0Ckk5PSrrJ4eYHNzbHgDBuvTP+1/tHPrk5rL0SbSLk6qLq4tGA1Sdl3TKM5C+/I9ulMZc1rV4L7wvqPkpKVm064dXwMABCDnB46ivnFXVUQEfwjnFfRWtzaNbeF9WW2ubQMbGZBicEnKNxyfWvnRWiMa5dfujPzV5mYfZ+Z9lwk7Kr8v1Gl1eSPb2Yj9DTxOmSMHI9qjd4Uliw6Abjn5h6Gn7rcnmWP8A77FefZdj6yMnd6q9/wBEey/Bj/kE6sR/z9J/6LFenV5f8FmRtJ1bYysBdJ0Of+WYr1Cvdw/8KJ+Y5u746r6hRRRWx5xT0r/kD2X/AF7x/wDoIq5VPSv+QPZf9e8f/oIq5QBlatDDPeaXHPFHJH57krIoYcRP2NZo1PwgcjZZAjOVNpgg+mNucnsOp7ZrW1AZ1DSxkj9+/T/rk9ZqeCtOREBnvWZDuDtN828ElXJxywLMQTnrzmgDP0+LRT4i1m6NrataG1s3RltwwwRJyABWwE8PGYRC0tN5cIP9FHU9OdvQ9j0NZ2naXD/wkGsaejSpBFa2SjDDJC+ZwcjnPf1rcGkQ+asjTTuRP5+GI5bt2zx29uOnFIDnfDiaJa+FtOa9tbVS0TNua2BHBPfb146e1HiiDRpdCnS3tLXzUntt2LcAgGZPb3wateGdOju/DOmyvLKCsDIFGCvLHJwQeaj8SaVb6f4cmaEyHM1uoDNkL+/QnH1PNKXwsHsc5I2ixzGJ7a0Vw23Bth/8T096u6BBpU2umb7HbNALGRj/AKOOokUHjGc1Xl0iCWczPLKX8zzAdw4PHQ4z2FaPhyzSHXzbxvIAbGT5wRuBMqknpj9K4aLfOjnp/Ebe/wAN4B+zWgyu4ZtOo9fu9u/p3qCxtdHto7prmztFBvZUUm3UgfNxnA4Huavr4etVjKebcFdoUfMOFAIKjjgEE8dOeMVBZ2EWoW95FMz7BfSkqpxu+bv/APWwa9A6CrqiaDPot8tva2hkazldCLYD+Fu+32J/DNXZotAtWEc9rZLJsDlRbqTg98AdOD+RqDUNEtbHQ794TJ8lpLhSwxnYwzgDrg4/+vV6XRLO5mNywlSZ0CsySEZGMdOnTikBjaja6RPq+hi3srUgX7xyD7Oo/wCXeU9xyOhrRK+HR/y7WTE+ZgLbgk7Dh+g7Gq2o2UdrrGhhGdvO1B2Ysf8Ap2lHb2AHrV+Pw5psRykUq/K6/wCuY8MMEcn3oAyLS30ZNY1i6ltLNbVYLaQM0CgAFW5xj6VpKnh5phEtrZl/M8v/AI9hjd9dvc8A9CarJYW+oa/rdvcITGY7b7rFSPlfoRWjFoltDe/ao2kDmTzCMjaT05GO2Tz15NAGPoUGix6FYJPZ2pmNt5hAtgx2g4zwtSXsWhXdqotbWzdlubYti3UcGVfUVLoenRXegaZK7yK6QYUpjjORnke546HuDTrrSLbTbYPb78vc2yncc8CZPb/9XQYFMCRx4djYq1tZgiRoz/owwGHUZ29siqpttGOrJc/ZLQWv2FpNxt1AxvHOMVozaDaT3RuXMpk37+CBj9P169s44qp/Zlv/AGoLBtzQvZSBs4yd0gJ6DH6YpAPb/hHkzutLVcKGObTse/3enr6d6y9DttHgbVBc2loN2qTIgMCnoFPp0rbGg26lSJrgbAoA3DBAOcEY5GecdB2xWVpGmW+pHVPPDfu9VnKlTg8hQR/+rmgBmt/2BceG9UW2t7QyGxnZcWwBBCN328HjOOvevngeUqIGVfuj+Gvo7WdDtbHw1qskRk+WynIUkbcmNhnAA5wSOPWvnMIrRrk/wj+VedmH2fmfZcJrStby/U6r4bw21z4+01HiikTbNlWQEf6s+te+f2Rpv/QPtP8Avwv+FeDfDGNY/iDpu3uk5/8AIZr6FrfBfwjzeJLrHfJGNpcENvreqpBFHEn7k7UQKPun0rZrKsf+Q/qv0h/9BNatdZ8+FFFFAFPSv+QPZf8AXvH/AOgirlU9K/5A9l/17x/+girlAGTrFvBc3mlxXMUcsRuHJWRQRxE/rVBJvB8iuyLpbBEMjERr8qg4yeOOfz7VqaiM6hpY5H79+n/XJ6yU8E2qmN2vrxpkywmIQOz7twZmC5Yg84PHTjigZSsbPQl8S6zO9rZG1+zWbI3lKVwwk5HHfitoWnhwyrGtpp+9n2KPKXkjsOKy9N0tE13WNOimlSKO0skDcEso83g+ue/1rWTw5aR3KzBpOJ/OCjAGc7scDpnn8B6CgRieGrTQYfDGnfa7SxWRomYb4hkgMfarGtadoU+lg21lYuRdWm7ZEpwGmT27g0vhzTRe+GdNZ5nCrAyhNoIBLH5hkdR61NqemJp+lgRSOyG4skVWA+ULMg6985pdBkz2fhdJWjez01WV9jAwKMH8q53XLHRP7WtJ7ezsxbmzlYskQA4kTrgdua6u40SO5uZZZLiYiVsvHhdrAAgDp2ycH6elc/rlmYdWtYRLIzNaTs0hAyWMkeTjGKzq6QZE/hZibdCKlglpgYydnTPTtW/4fsdEh0yRruzsl3XkyK0kS/3j3xWCNAiWNkWaYKyhSAo5A5549hj0rp9DsFv9Hlikd1QX0zEAD5sPnuKwwzbkzOk9RNUtfDs2i3629rYNKbSVlCxLnhT7VflsfD1thZ7PT0cIGKmJc4PGcY6Zqpf6FBYaLqMscsrH7NM5U4wzlGGfyOMVoXGiQXMss/mzpJNGscgBypAx2I46V1mxjajp+iT6voQtrKydft8iSbIlx/x7ynB4+laL23hmM4a10/OWHESnlThh06gjpVe909LPVtBVHkcNfPy38Ki3mwBj0yeetaCaFBDbNDBPcx5DhW37iu4gnGfpj6E0AY1pYaGmvarJJZ2XkFLXYfKUg7g2Mcd+K1hp/h8zLCtlYGQuUCiFScjBI6dsj86pwaelzrOsWjHagitQCqDjCv0BGB/StIaQn2hZmnkYrN5oyq5HCjGcZx8oz685oAxdDstBi8P2P2mzsQ/2fzDuiXO0Hr0qbUdP0GW3CQWVk0kdzb7wsK5AMq+1O0fSor3QNNkdipW3242Kc5z1yORz06GpLrR4LCETRtI7tPap83YCZD+p5oAmNn4dE3lG0sA5k8sL5K/e9OlURp+hPrazJZ2DWwsnYuI1K8SAE/hg1oN4ctWmnkEsyiZyzqpAyC24jOM/eAOevaqv9kW63403MrQNYyLljluZAev40ATG28NBSxtbAAFQSYQMEjIHT05rK0LT9FiOq/abOzGdUmRN8S+i8dK1/wDhHLfB/fzA7dhwFGQRhs8c5Bx7dqzdJ0uDUX1MzFwYtWnYYxzkKCOaYBrlp4fn8Nar9mtLFpPsM7rsiGRhG56cc187qIgi7goO0HpX0Tq/h+20/QdXuonlMhsJw2cfMSjcn/Dp0r538pZIlBz90V5mYfZ+Z9nwknatZX2/U6r4dW1rdePdOilgiljKzZV1BH+rPaveP7B0j/oF2f8A34X/AArwz4ZJs+IWndSSsx/8hmvoSt8D/CPM4lusdr2RiaRa29prerR20EcKfuTtjUKM7D6Vt1lWI/4n+q/SH/0E1q12Hz4UUUUAU9K/5A9l/wBe8f8A6CKuVT0r/kD2X/XvH/6CKuUAY+uWcN/c6XBOJPLNwx/dytGeIn7qQf1quNC0EruFxOV2ls/2nNjA4J/1nQd6vakM3+ljOMzv2z/yyeubXwDh2kN/DuMnnbRajaGBJC43fcOTle/HIxSGJY6DpX/CVa0JHuFhSC0IY38w6+Z/Fv57Vt/8I5o4YDfdBi20D+0Z+vp9/rWRp2k41TWNLWVCEsbKLe6dQBKM4B49vStkaIwv47r7Si7JjIFRMZBCA55xk7OvufagDD8L6DpDeGbB5nuEdombH9oTLwGOTjf0qfXPD+kjTVMT3LMLq2BH9oTNgGZP9v0NO8P6a174b0mRXiXyo2wHj3ZJLDnnpz/hUl7pP9maXxMGRrmzG0AjJE0fzHJPPbjFAFw+HdF3FTJc7t20j+0p/vdcf6zrWVN4Y0SfxBBvE8kH2KR9xv5iOHTnO+tO88Om8vZLg3YjLsRiNMYBH16/p14zTI7IwazFb7oizWU54j+QEyIcbc9PxoYiP/hEfDOM+W/b/l/m79P4+/auYTR7O3ub6KOS7iiS8kVVW+mUDkf7ddOPCgB3C6XIjKYMeRyMMevX0Pb8a5zUbH7feXg84xiPUXkA2ghiCOoP+eawr+7G60M6mi0Kmo6fanSbtkubtwYHx/p8zA8H/b5rtj4a0ZEBdrpeAedRnHt/frhLjSTa2VzctcBnS1mUqqAKdwySPTp0+ld5feH/ALddm7F66OyIApUELt9CMHuTj1pYZtp3YqTbuZWreHNLXVtBVPtRD3rq3+nTn/lhKf7/AAeK0/8AhH9DxnzbjGC2f7Sn6Dqf9Z2qG+tTa6xooLIfN1SWQbF24Bt5evqfenjw0QExcR4RlZFMZIXbnavJzt5ORn8q6DYz7Pw/pI8Q6sHa5WNUtyCb+YdQ3ffzWsfDejq6qWugxOADqM+Sev8Af9Ko2+mCXUtTshIuYorQK7A9VVsHgjmr0Xh/yr43JvDKXlWRzJGN2RtPBGOfkA+nFAGXoGgaQfD9g0z3KsYN2P7QmXgdTjf0qXVPD2kfZE8prlmFzbggahM2AZV/2/SjTdI/tDw/pzrMsR+yhGOCSRnOOvTP48cEVPNpR0+3VzKj5ltIhtTbwsynJ568/wCNAE//AAjuih9nmXO7dt2/2lPnOM4+/wBcVQ/4R7SW15NrXLRGzZtw1CY/xjvvq9J4eZ5pz9rBimlaRlZMsM5PBzwQT24+Ue+a40rFyumPOTu0+RPMUEYzIPfOPxpiLA8P6K/CS3LHAOBqU569P+WleH+I7m60rxVrNpZahf28CXjbUS8kA5C5P3uTXu39jFYlPnRNMpi+d4s4CNuwOc9e+fzrwTxqobxtree143/oK1x42TjTTTtqfRcNUoVcY4zin7r39UZd5q+pyWU6Nq+ourRsGVryQgjHII3VRFvAAAc9P75/xpk0JWCR93SMjH51M0HmAHODgV5Tm2ldn3MMPThN8tNLRdF5nS/D3TbW78dadDKJdjJNnZM6HiM91INe5/8ACK6V6Xv/AIHz/wDxdeK/DNCnxB03JHKzn/yGa+gwR6162Cf7o+D4kSWO0VtEYWiWMGn6xq0NuJNhMJ/eSvIc7D3Yk1vVlWP/ACH9V+kP/oJrVrrPACiiigCnpX/IHsv+veP/ANBFXKp6V/yB7L/r3j/9BFXKAMnWIBc3elxGSWPNwx3ROVb/AFT9xS/2PH/0EdQ/8C2p+pDOoaWBjmd+v/XJ65ePwLdRs7rc2ib9xaMRMUZd24R4J4QnrjnHHPWkBasNKQ+L9bQ31+AsFod32lsnPmdTW4NGTP8AyENR4P8Az9NXPafpMn9o6xpe+OR47GyiLuDg4EoyPT2+latv4euYrmKRr4FI7rz9vl53nkcnPBwcdwMUwKXhXSkk8L2Dm/v1zGTgXTAfeNS69pKJpqML/UG/0u2GDdN3mSqej6TJqfhbSjG0SbIWG4g7j8zcfQ/p6Gp7zSJNN04M8iPm4tFyoILf6RGefp0HtSGbJ0VM/wDIQ1Hn/p6as1tJQ+JYEF/qBBspDn7U399Knn8PzSX81ybqOQSyh9skZ+TGOmDzwoXtwTUEGny2+qQ2YlWKQ2NxhoxkJulQ8Z9M0CNE6NGM/wDEx1HP/X21ZGm+GrS5+2vJc35b7ZKCRduM81MfDEwSNBNbny4Vhz5ZG7AxuIz95e3J6DpTo9Ol1GCdI7owCPUpJDhN27DDHcdP50NJ7hZFXWvC9jFoGoypc35KWsrDN25GQprOU3RRSdV1HkD/AJeT/hWreaTPp/h++LvE6x6bcREjO7kZH4cH865S+0WW+maYXIAaJUVWX7mO4/Mnp1rlrvkty6GVTTYv+TLceIdCik1LUHU3UnW5PB8iSux/sePr/aOo/wDgW1cRpVk9l4k0RC4ZWvpWUDt/o8mcn1rqD4eufKjRGtf3auqB0LYB42nI5Hfnv2NaUJNxuyqbvHUgsdKT/hJNXU39+AqW/P2ps8hq1xo6Z/5CGoHnH/H01ZEemmfU9WtI9qtHFabNzEgFVbHPfHv1rRbQz9uS5V4txlDufLweCpGMd/lIPsxrYspeHtJSTw/YN9v1BS0I4F0wqTVtIRLSP/T9QP8ApNuMG6bvKlVNL0mW90bTp0lTb9haExuDjkN/iM/SrVxpstpH50jxkvcWynYDknzk6k9cYwPagZof2NHnH9o6jnOP+PpqzjpKHxEii/1Ag2bHP2pv74qVtAuReSTpcRMWnaVd4JwG65Hfj5cenIqAaY4uBp+9Y5H0+RS0f3QWkBOOmBz07UCNL+x48Z/tHUP/AALavnzxdbiLxlrSebK227YbncsT8q9TXuQ8NXCyeb9ojDgLtwOAw79OcDgA8dema8R8aoH8ba5n/n8b/wBBWuPH/wANep9Jwuv9sf8Ahf5o564iH2WX53+4f4vavfYfhX4VaFGNpc5Kg/8AH3J6fWvAJbcpDK+7+BuPwr6zt/8Aj2i/3B/KssDCMlK+p3cTYitRnT9m3G6ez9Dh/wDhA9D0bXdIm05bu3mkmkjLrdOTt8lzjk+wrqP7EX/oIal/4FNTdU/5DGh/9fUn/oiStavQjFR0SPkalWdWXNUk2/PUxNHtha6zqsYlml/1J3TSFz909zW3WVYf8h/VfpD/AOgmtWqMwooooAp6V/yB7L/r3j/9BFXKp6V/yB7L/r3j/wDQRVygDG12Ca5udLjt7uS0k+0MRLGqsR+6fjDAj9Kb/Y+rf9DPff8AgNb/APxurOpbvt+mbMbvOfGemfKeuVXw94rDN9o1ETEuzkpdyIGQsS0eMfLuyMH+ELgUgJtP0rUm8Xa0i+Ir1XWC13OIIMtnzMDGzHHt61t/2Pq3/Qz3/wD4DW//AMbrEsLLUzf6xZx3KrfixskeVnPJxLnDDnPvW59lvm1BWZZBELoybxcE4Xaoxtz0JB47Dp1oGYvhTStTk8MWDx+Ir2JTGcItvAQPmPqhNTa9pOpppqF/El84+1Wwwbe3/wCeyYPCdutR6Ha6jN4a0p7V0aFIJA8JkaMux3AZI7dPTvVzUrKW203fLI7FriyQBpCx4mTJIzjOfT0FAFv+x9W/6Ge+/wDAa3/+N1mvpOqf8JLAv/CSX242ch3/AGe3yBvTj7mK0JNP1h9ReT7XH9ma5STYHcHyxwVx0HHbuahS1ubfU7eCOUC5/s6b53JcBjIh6nnAzx+FAE50bVsf8jPf/wDgNb//ABus/SdJ1NkvNviS+XF3KDi3t+TnrylWv7K1BLaIPI8k2yKN2S5fI253PzjJ6Dn6+1Mjtru4inNnIUkTUJj9/C9cZYdwPT1xQIi1vR9UGg6iX8S3zqLWXKm3txkbTxxHTE8GT7Fx4j1HGB/yxg/+N0Xmn6hBpmoSSuwhFpN8pnL4HlsNuD1Jb5s/hV+9sL+aW4a3Z9ksabSZiuxhjBAHbqSD14+lJxjLdA0nucvrug3mkX+iXEOv3zSm7dVLwwHbmGTkDZ7Y59asedr3/Qx3X/gLB/8AEVL4hgnhfSjOGVn1R2VTIXAHkSYwTzz1+tc5/ZmqdPObywhUDzfm655PTJ4/CuWrJwlaOhjOTi7I39As9Wvdb1dm8RXiyKtuCy28HzfK3Yp9a6L+x9W/6Ge+/wDAa3/+N1zWiW19PLq0UMgW4Asy4VsBsKcgGuht9P1FL6J5mYoJd7utweTzyFPY5Ax22++a6KbvFNmsXdXM/wAO6Rqb+HrBo/Ed8imIYUW8Bx+aVLq2kaotnGW8SXzD7TAMG3t+vmrz/q6j0qz1ObSNLks51SP7GU+YnCsc/NgdT0x6YqZrK/tbZDeSbz51qpbzS4ZvNTkA9MDI9+tWUXf7G1b/AKGe/wD/AAGt/wD43XA+PtU1/wAKapp8tprs8sk8Eis01tDwAynjCD1rs7jS9be7laO72qZ2dW8wjAPTj0A4+vsa87+K0M0DaLHNkP5dwQpcuVBZMDd3rDEycaTa3PSyajCtjqdOorp30+TMb/hZHjD/AKDC/wDgLF/8TW34S8DQeONNude1XVb5b24u5RJ5KxqpwQM42mvMxG46E9v4q93+EP8AyJJ/6/J//QhXHhZOrJxqO6PpM8o08DRjVwsfZyva600szF1n4RaVZaFqF0mq6kzQ20kgDGLBKqTz8ntXb22j6s1rER4nvxlFOPs9v6f9c6ueJv8AkVdY/wCvGb/0A1etP+POH/rmv8hXoxpxh8KsfH18TWr2dWTlbvqctqWk6muq6MG8SXzM1xIFJt7f5f3MnP3Pw59a0/7G1b/oaL//AMBrf/43Uuq/8hjQv+vqT/0RJWvVmBgaHbz22saslxfS3j5hPmSoikDYeMIAK36ybD/kP6t9IP8A0E1rUAFFFFAFPSv+QPZf9e8f/oIq5VPSv+QPZf8AXvH/AOgirlAGRrKTyXWlrbTrDL9obDtHvGPKftkU77HrP/QWg/8AAIf/ABdP1Ld9v0vZjd50mM9M+U9cumn+MVZzcTvKWLhxFcgLsL7vkPGGI+UZGAMcg0AWdPtdVPi/WwuqQhxBa7m+yDn/AFmON1bn2PWf+gvB/wCAQ/8Ai656xg1Y3+sQRyr/AGl9hslkdnwd2Jc4bB598VqwW2ti+DTO5j88tlZQBjcOozyu3IA9T070gKPhS11ZvC9gY9UhVDGcA2YP8R/26m1+11ZdMQvqsLD7XbdLMdfOTH8dQaBDqUvh3STasot1gl3qJCjMx3be3TOOhHU1PqdvqFvaSC6m823E9ikJL5OROu4kY6nqTk/pQM1Pses/9BeD/wAAh/8AF1mPa6t/wksC/wBqw7/schB+xjpvT/bqxdW2utfSSJKfK89TGscuAI+4OcYOAfUZbPYVAkN39uhid5kuW06fksGdCZEwASecdASfyoEaP2PWf+gvB/4BD/4us/SbTVyl5s1WEYu5c5sx1z/v1M8OrsgKidXUREDzBtYjcGB+bIHKk8n8aZDHeskrWRbcmozFk3YVhn+LkHH0z9KADWrTVxoWol9VhZRbSZAswMjaf9uri2es7RjV4MYH/LkP/i6yry21mPSr9r2QuotbjcRKChBV8DGBzkrjjgDGa0p7W/lu5RHLMsEix4YSbdmCM7cH03E5HXHWmBjeINN1S51DQoZtWiO+9faVswMEQSn+9/nNWf8AhFb/AP6DS/8AgGv/AMVSXEV5Fq+ifamck6i5Te+7/l3myR6DpgU6O119YF83zpZAuDtuAu7g5zz1LEEY7DtnFQ4Rk7tCcU9zEhTVdH8RarBBqULEpbszPZg5+Vh2b2rQGqa6SP8AiY23X/ny/wDs6ydcivTrGoR28jm4ENnvYkBmAD579T9arQw6qNUics/2fzQWVpM+me/Trj8OO9cs6koy5Y7GMpNOyOo8M22ryeGdOdNVhVWgUgGzBx/4/VfxjLrWkeF7rURqVvK1s8UoQ2eAxEq4z89P0GHUpNC0drck232DBUSbPnwcEkHP93HB79Ko+Ora8g8F60s0k0kHkwKrSybtzCRckc9xj0/Gumbag35HdhYqdeEZbNr8zif+FteJ/wC7p3/gO3/xdT6Yl/8AFbVWj1W8jtPsEG6M2tv97e2Dncx/uivO2Vw+RnG7p7V6V8F9w1rU92c/ZU6/75rzKFWdWahN3TPus0wOHwWFlXw0OWcbWav3S/I1f+FMW4/5jtz/AOA6VreCdE1DS9Nv9Ps9VQQ2+oTIDJaBiehz94etd4elYHhj72tf9hSf/wBlr0oUoQd4qx8ViMficTHlrTcku5W8Q2msL4a1Uvq0LILObcBZgZGw/wC3V23s9ZNtEV1eADYuP9CHp/v1P4m/5FXWP+vGb/0BqvWn/HnB/wBc1/kK1OM5zUrTVxqujBtVhLG5k2n7GOD5Mn+3Wn9j1r/oLwf+AQ/+Lo1T/kMaH/18yf8AoiStagDD0aO5i1nVlurhZ3/c/MsXl4Gw8Yya3KybD/kP6t9IP/QTWtQAUUUUAU9K/wCQPZf9e8f/AKCKuVT0r/kD2X/XvH/6CKuUAYuv/bfP0z+z/s/2j7Q2PtG7Zjynz93nNQ48W/3tE/Kb/Gr2pZ+36Zt+95z4+vlPXKx/8JkI41f7WQow7jygzpk72wc7ZPu7RnGAfWgY6wHif/hLNZ2HR/N8i135Eu3H7zGP1ra/4q7u2iflN/jWVp/9p/2nqu9nF+LSwMuxQSW/ebh1A56EjpzWmn9uG+gJ8wRmYearbdoGfmwR1XbgD3pAZPhceKB4asfIbRvL2HG8TZ+8am10eKTpyec2i7PtVt90TdfOTH64o0Jr9PDmmPbLPJEbZwyRbQc7m5BPfoMY9fSrF/8AbfsD/annZRcWQHmKAGbzkywx09Me2aALX/FXf3tD/Kb/ABrOceKv+Ejhy2i+b9jkxxNjG9P/AK1aVz/bAknEHnsRPmJsKFK/3TnsBjB7nrVaEX5u4VmeRbz+z5wH2gsP3ibTj1xjigCx/wAVdjrof5TVQ0oeKdl35baL/wAfcu7Im65571ZmOvtG3kiUOQhUHAAOMYzzkZ+Y/l706P7cIp2st5YahNuRQMMM9yeg796AK2sf8JX/AGHqHmNovl/ZpN20TZxtOcVcX/hLdow2h4x6TVTuf7W/sa6+1mcqLK48zeFCn5TtPrnr+laE76ql7OUWU24EPleWFPGV3Dn1+fPoAPWmBjasPFB1XQvMOjb/ALY/l4E2M+RL19sZ/StX/ir/AO9of5Tf41Vn+2jV9F+17yf7Rfbvx/z7zZxj+HpipIj4jMUAlSQIA3nMjJvbkZwD0x8wGPr6UgMP+zfE174l1Q+bo6yrHbhvlmIxh8Y5+tXBoHikEHz9F6/3Jv8AGrCf2mL/AFMwA/bPKs/NAxn7rbsds/8A161WTUluonD3G1rkEplSqx4Gcnryckf41m6UG7tEOEW7s5HQtY8SW2hWMES6OY0iCqW87JxxzUfiK58Sa7oz6TMdIiS8liiLoJSVzIuDg1UhS7bSrI2ryqFiYuEI5+boAe+CT+FWrNLwXFq908nN1agKxB58xcnjp2H4Vze0k5cr2IhWnCopReqZif8ACnNb/wCgvp3/AH5k/wAa1vC3hDxD4U12dLe80q4kuLUE+ZHKAAr+x969SrLb/kaI/wDryb/0YtdEcPTg+aK1PXr5vjcRTdKrO8X6f5FL/ir8fe0P/vmb/Gsbw8PFGdW8htGz/aM2/eJfvfLnHtXdHpWB4Y+9rP8A2FJ//Za2PNMzXx4r/wCEb1Tzjovl/ZJd+0TZxsOcc1dtx4t+zRbG0PbsGMib0+taPiX/AJFXWP8Arym/9Aar1p/x5wf9c1/kKAOS1EeKv7T0je2i7/tD7MCbr5MnX8M1pf8AFX/3tD/75m/xq3qv/IY0P/r5k/8AREla1AHP6ANQ/tbVv7SNqZ8w/wDHsG242H+9zmugrKsP+Q/qv0h/9BNatABRRRQBT0r/AJA9l/17x/8AoIq5VLSj/wASey/694//AEEVcoAydZa4S70s2sUUsv2hsLLIUXHlPnkA/wAqf5+uf9A7T/8AwOf/AONUupEi/wBL2jJ86TH/AH6euWh8Q+JCiCS1Y5jId0s3wpDfNIAQCVA4C/eJHQjmgC5p8+sjxfrZWwsS5gtNym8YAcSYwfL571ufaNdz/wAg3T//AAOf/wCNVzun3t//AGlqt0YxHdtaWDSoYzwT5mQBgkH69M81qLqeqG+ijEG5GudrfuiMISOMnuq5JPPOO1ICn4Tn1keF7ARafYsnlnBa8YH7x7eWam1+fWjpib9PsFH2u25F6x585Mf8s/Wq3h+7vIPD+lpCC0TW0hwkZZtwLEHpjHGMZzkiptRuL97RobzB2XNpkrEVAPnx9D3zyfbFAzX+0a5n/kG6f/4HP/8AGqzHn1r/AISeD/iX2G/7FJgfbWxjzE7+XUlzqeqx3zQxRB1E5UMIWK7ew6dccn9D2qA3l6bqK5WLfdrps+F2kBmEicgYBwevTNAGr9o13/oG6f8A+Bz/APxqs7SJ9bCXmzT7A/6ZLnN6w5z/ANc6b/a+seWTHaPK2F48g/KMr83UZ3Atx2wOKcl5d2u/7NCXR9SmEpCFiBnoB7/0oAfrU+tnQdR36fYBfssuSL1zgbT/ANM6upca5sXGnaf0H/L8/wD8arHutR1CfTb+OeMtbtYTMsgiKno33vQjAGM96u3mpanBeTRxQ/uYxGVIjJ3DAzg46knA+nOOtAFTWJ9aOr6AW0+xDC9faBeMcnyJev7vjjNa/wBo13/oG6f/AOBz/wDxqsq5uZrnVtFaQkhdUlWMGMo2Bby8EfXp7U2PWNabyhJAYwy/vG8gnZzyQO+3p/j1oA5vWPHl14U8WX8V3o8U0s8MD4iuzhQA46lBUP8Awuj/AKl8/wDgYP8A4iuU+Jkk0ni1ZJV2TNYW5dcYwTuzxXHLI+7B6Zx09q8uviqsKjjF6I+3yzJMDXwlOrVi+Z+b7ntfh3TdcvfDunXUNtp4jmgWRQ904IDc8/u/erd5pevWy20z22nEJdwHAu35Pmrj/lnW54I/5EbQ/wDryi/9Bq9rX/HlF/1923/o5K740oaStqfEVKUY1Gl0Yz7Rr3/QN0//AMDn/wDjVZzT63/wkiH+z7Df9jbj7a2Mb17+XXSnrWW3/I0R/wDXk3/oxa2EBuNdx/yDdP8A/A5//jVYnhyfWQdX8uwsWzqc27deMMH5eP8AV1156GsHwwfm1r/sKT/+y0AV/EM+tnwzqok0+wVDZzbiL1yQNh7eXV22n10WsO3TtPI8teTfP6f9cql8Sn/ildY/68Zv/QGq/af8ecH/AFzX+QoA5zUp9bOq6Lu0+wDC5k2gXrHJ8mT/AKZ8d61PtGvf9A3T/wDwOf8A+NU3VP8AkMaH/wBfMn/oiStagDE0Zrp9a1Y3cMMUn7n5YpTIMbD3Kj+VblZFif8Aif6r9IP/AEA1rZoAWikzRQBR0n/kD2P/AF7x/wDoIq7VHST/AMSax/694/8A0EVcB5oEZWsyzRXelPBb+fJ9ocbN4X/lk/c0/wC36r/0Bm/8CkpdUYrfaWyqWImkIUd/3L8VyNv421uaJGawhjJA37oJCEBzufg8rHwGHUk9sUDNHT73Uh4v1tl0li5gtMr9pTj/AFmOa3Pt+qf9AZv/AAKSuastWu49R1TUPs4WeW108yIQcR7vMycdfz9RWrFr98+o28Bt08uSUK37tgU5xtOT94DDHHr6c0gKvhO91JPC1gsekM6iM4b7Sgz8xqbX77Un0xA+kMo+123P2pP+e6VS0HVrmy0DTII4kEbWcknmOpI3AtgcHoMc/UVYv9Vnv7aaOSNFijubJkZQeczx5/zx+NAGz9v1XP8AyBm/8CkrNe+1P/hJoG/sht32KQbftSdN6VJLr12lxOhjjjEd15QDRscpkjOQeuBuxjoR9ag/tG5N3FfiNJZhps7oqDAbEqY4yccYyM8UAah1DVcf8gVv/AqOs/Sb7U1S826QzZvJc/6UnBzTD4hvtpIii5UMp8tj/D0ODwWbhe2OeafHqE9izJDFvWbU5kdtudoz2GRyf6GgB2t3+qNoOohtHZVNrLk/ak4+U1dW/wBUCgDRm6D/AJeo6z9Q1C5m0i+guPKzJp9xKoVGVsDIHBJ6g5p+oa7fWdzPDDbKyxKhTKkl8ge46k7R9D1ximBkeL/Edxor6LqV9pEohgvW4S4RiSYZFAA/HP4Vm/8AC5tO/wCgNf8A/fyP/GqvxQvZrzwta+eirJHqmz5Pu48t8DPcjv05ryIyuCc47npXn4nEVKc+WJ9XkuUYXF4Z1a173a0fod9f2eo/E3X7zVdGs1iigjigdLqdVbcAxyMZ4waYPhX4q/54WX/gV/8AY10nwWObTWz/ANN4v/QDXqfp9auGGp1oqpPdmFfN8VgKksJQa5IuyutTkvCdzqlt4R0mAaQZPKtUTcLpADgYzVrV77VGs4t2jMo+1W/P2qP/AJ6pV3wv/wAixp3/AFxFS63/AMeMX/X5bf8Ao5K7ErI+clLmk2xn9oar/wBAVv8AwKjrOa+1P/hI0b+x23fY2G37UnTetdNWW3/I0x/9eLf+jFpk3E/tDVcf8gVv/AqOsTw5e6kp1fZpJfOpzE/6Sgwfl4rsOxrA8L/e1r/sKz/+y0DuV/EN9qbeGdWV9HZVNnMC32pDgbDzV63v9VFrCBorEbF5+1R+lS+Jv+RU1j/rxn/9FtV+0/484P8Armv8hQK5zmpX2pnVdGLaOykXMm0fak5/cyVp/wBoar/0BW/8Co6TVf8AkMaF/wBfUn/oiStagLmHo0s82s6s1xbG3f8AcjaZA/Gw85FblZNif+J/q/0g/wDQDWnuoGPopm6imBQ0tsaNYf8AXtH/AOgCrYes/Sm/4k9j/wBe0X/oAq3upCKGt3TWtzpMy209wRcuPLgUFj+6fsSKX+35v+gFrH/flP8A4ujUZAl7pTkEhZ5SQOv+peubt/iILiNG/s+NN6jZvnwN5IwrHbwApBJ6dcZpDLOn63Kvi/W5P7F1Ul4LUbREm5cCTr8/fNbY1+bI/wCJFrH/AH5T/wCLrn7HXVXVNU1Rbc/6Ra2BEZP3dwl6n0/nW7ba3Jc3MUSW0eWuPL2mQ52YJD9MdAeKAMnwnrcsPhawQaLqrgRn5kiTB+Y/7dS6/rk0mmIp0TVl/wBLtjloUxxOhx9+qei6+NK8N6ZD9mMhNsz5zjJ3sAOntV7U9Se/0z/VRiJbmyYOrE8tMhwQQOg/nQHU0/8AhIJs/wDIB1j/AL8p/wDF1mPrkp8TwSf2Jq2RZSDb5SZP7xOfv0+58Wrb3M0f2MsIpmQ/Ng7VOM9PX/PNMfVsaj9veEFodPnykbbgxWVOhx0pgaR1+b/oBax/35T/AOLrlIviTo2jXV/Z31tqUVwt3IzJ9nB25IIzhvSth/GGyRY2s+GAO4McAfxE8fXHrg14z45cr441rAzm7P8A6Ctc+JqunHmietk2ApY2u6dVtJK+nqj0nVvix4dutHvreOPUd8tvIi5t8DJUgd6tL8XfDYRRs1LgD/l2/wDsq8GefejLj+E1I0zIOFBAGa4/rtXsj6NcN4Fv4pW+X+R6f418WWnjq107R9CtL+e+N0ZRG8QTKiN88lsVy48DeLP+hevP++o//iqPhxN5nxA0k4xhpR/5CevoQNWsKMcSuepv5Hn4jHVMnqfVsLrHfXfX7ux5l8Nl1Hw22s2l9omo+e0kL7YkRsDYQM/P7Gu9Gvy5H/Eh1j/vyn/xdQ2Bx4n1o/8ATO1/9BetlGBZfqK7YQUIqK6HzeIryxFWVWe7OY8Oa5LH4csE/sTVnxCPmWFMH/x+pdY1yV7OIf2Jqy/6VbnJhTtKnH36t+GW/wCKY03/AK4D+ZqXW2/0CL/r7tv/AEclUZdRP+Egm/6AOsf9+U/+LrObXJT4kST+xNW/482G3yUz99efv10Zfms1j/xU0f8A14N/6NWgSsIdfmx/yAdY/wC/Kf8AxdYvhzWpYjq+NF1V92pzN8kSHH3eD8/Wut3cGsPw0cNrX/YWuP8A2WgCv4h12WTwzqqHRNWQNZzDc0KAD5Dyfnq7ba/MtrCP7C1c4RRkQp6f79S+JGz4V1j/AK8Z/wD0W1XrZsWkH/XJP/QRQHQ57UtclfVdGb+xNWXbcyHBhTJ/cyDj560/7fm/6AOsf9+U/wDi6bqjf8TbQv8Ar6l/9ESVqbqAMfRrtrvWNXla0uLY5gGy4UK33DzwTWxvrLsz/wAT3V/pb/8AoBrQ3UDJd1FRbqKYGfpbf8Sex/69ov8A0AVaDVQ0xv8AiUWP/XtH/wCgCrQbmkIqapcrbXmlSusrAXD8RRs7f6l+wGaUX+mgEDTLkZBU/wDEsfoeSPu9D3pt6x/tDSscnz5MD/ti9Yv/AAnSq+x9NkyZPKQrcIVdizKuDj7pKN83bHvQMmstTtD4q1wPZ3jRNb2Y2fYZD0EnVdvFbUer2aSApZXyktuJGnyDJ9fu9a5/TtXEuq6xqcMJZZLOxcRs4U8iUYz654961rfXDNdxQrakF5QnMoyB83zYx22Nx9PWhCOa8P8AjnwvaeH7K1vbsLcQxtG6PbOSpLHI+7+dO1r4geFptNSKDUBkXNu21beQfKsqE/w9gK8XuZSlxMMZ/eyf+hGq0s28AejL/MV5zxk07WPsIcO4Z01Nzd2r9P8AI+gD8Q/BxkL/AG5C27du+yPnPTP3euO9Uj8QPCi65E6X6rbrZPFgWzhQTIhxjb6A14g0xUn5envTVl3yBsEfKf51P12p2Rq+GsLeyqS/D/I98PxA8G7cC9ixxx9kft0/h7dvSvHvFOpWupeKtUvbR2kt5rgtG+wjcMAdDz2rE+0dsHIGetKH2qTjPzGsq2IlVjaSO7L8qoYGq6lKbbtbX5BI6+U+EbOCPu1ujwp4hKjOg6ieP+fc1hLKHXgEZ5r6iU/Kv0FVh8PGqnzdDLN82q4KcPZJPmT3T6fM8T8JaXqWieNNIutQ0q/t4TJKoY2zHLGJ+AAMmvYxrVv/AM+2of8AgDL/APE1S1g/8Tfw9/1/P/6Ty1sbzXpUqSpx5UfG47GzxlX2s0k7W0MGy1eAeI9Yb7Pf4ZLYACylzwr9Rt4rVTWrcOv+jah1H/LjL/8AE1Usm/4qTWf+udr/AOgPWsjHev1FaHGYPh3V4I/DenKbe/JEA+7ZSkdT3C07WNZgaziAt78f6VbnmylHSVf9mp/Dbf8AFNab/wBcB/M0/WmP2KL/AK+7f/0atAdSY63b/wDPtqP/AIAy/wDxNUDrEH/CRI/2e/x9hYf8eUuf9YvbbWyWOaz2b/ipE/68W/8ARq0ATHWrfH/HtqH/AIAy/wDxNY/h/VoEOsZt747tVnYYs5T/AHevy8fSui3HFY/h9udZ/wCwtcf+y0AN8QaxA/hnVkFvfgtZTDJspQPuHqdtXYNatxawj7NqHEa9LGX0H+zUXiJj/wAIvq//AF5Tf+i2q/bufskH/XJf/QRQBjalrEDaropFvfjbcyE5spR/yxccfLzWl/bdv/z7aj/4Ay//ABNVtTY/2rof/X1J/wCiJK091AGbpd0lzq+ryIkyD/RxiWJoz9w9mANam6sy0b/id6t9Lf8A9ANXt1AEu6iot1FAyjpjf8Siy/694/8A0AVa3VQ0xv8AiU2X/XvH/wCgirIbmgClq9/bafc6XcXcywxC4cF2zgExPjpVVtZ8JOAHn09gEMYzDnCnkr93ofSrl45XUNLIznzpOn/XJ6pjxpY+a8LR3ySrkbGQZZg2zavzfMd3HH44pCMu18UeG7bxNq/manZxQNb2axBvlU7RJ0GO2RWjH4w8IxzeYmsaarF9zMGwST1PSvLfiJfR3viw3kTM0ctjbspYYOPnrkvtClgMnOa46uKlCbilsfS4LIqWIw8a0qlm+lvOw6S5gllkdZAytI5BHcFjUMskRVQvLF1AAByeRSxyhLePOelamgSBvEekkZ4voD/4+K4UuafzPp5zdPCtpq6j+S9SqYnJ5t5v+/Lf4VH5bC4CiGUHYTjym9fpX015rZPzN+dZ7yN/wk0PzN/x4Sd/+miV3fUY92fMvies/wDl2vxPnnyXP/LvN/35b/CmRo5DYimOHI4ibj9K+mfNbH3m/OqGlyNtvfmb/j+m7/7QpfUY9x/6z1r39mvxPndoykbN5MqgDJJiYYH5V9Br4s0EKv8AxNYOno3+FTa3K39gal8zf8esvf8A2TV5JW8tPmb7o7+1dFGiqV0meVmWZTxzi5RStfY5fVfE+iSaroLJqULLHeOzkBuB5Egz09SK1h4r0H/oKwfk3+FM1iVv7X8P/O3/AB+v3/6YS1r+a/8Afb862PNOZs/E+iL4g1aQ6nAFdLbacNzhXz296008WaCHX/iawdR2b/Cm2Urf8JHrHzt9y17/AOy9aySvuHzt1HegDmfD/ifRIvD2nxyanCrrCAQQ3HJ9qfq3ijQ5LONU1OBiLqA4AboJVJ7Ve8OSuPDWnfO3+oHf3NSazK/2KL52/wCPq37/APTVaAGHxZoGf+QrB+Tf4VQPijQ/+EgST+04dgsmXOG6+Ypx0rovNf8Avt+dZ7St/wAJGnzt/wAeLd/+mi0AR/8ACV6Dj/kKwfk3+FZWh+J9EjOreZqUK79TndchuQduD0rqfOfH32/OsjQJGB1nDN/yFbjv/u0BoUte8U6HL4c1SNNTgZ3s5lUANyShx2q5B4r0FbaEHVIARGoIw3oPapvEEr/8I1q3zt/x5Td/9g1et5X+yQfO3+rXv7CgDntQ8UaG+p6Oy6nCVS4kZiA3A8lx6eprR/4SzQf+gpB+Tf4UupSudV0T52/4+ZO//TB60/Nf++350BoZOkajaajqurTWc6zRgwLuXOM7D61q7qzbVydb1Ukk8W/X/cNXd1AyXdRUW6igCjprf8Smy/694/8A0EVZ3VT03d/ZVl8p/wCPePt/sirHzf3W/KgCpqNzFbXmlyzzRxIJ3+eRgoB8p+5qo9v4XkSNHnsSsalUAu8BcknI+brknnrz1rXI3DDR7vquaTyk/wCeK/8Afsf4UAeLeP3sv+EsaOykha3jsoETynDKMbuMiuWxHu3EgmvpLy1XpCo+iUmwf88x/wB81yVMIpycr7nv4TPZYehGj7NO3n/wD5shMbQJkjpWjoskUOv6W7OqqLyEszNgABx1r6C2AcCIf98UeWp4MQP/AAClHBpS5uYupxBKdJ0/ZrVWvfy9CP8AtjTM/wDISs//AAIT/GqD6vpv/CRwv/aFptFjIM+euM+YnvWp5Sf88F/79j/Cjyk/54J/37H+Fdh84RHWNMx/yErL/wACF/xqjpur6aFvM6jZjN7MRmdemfrWn5Sf88E/79j/AAo8pP8Aniv/AHwP8KAM3WdX01tC1BV1GzJNtIABOuT8p96uLrGmbF/4mVn90f8ALwnp9am8pP8Angn/AH7H+FHlJ/zxT/v2P8KAMXVtW05tV0IrqFoQt45YideB5Eg55rW/tnTP+glZ/wDgQn+NSeUn/PFf+/Y/wo8pP+eK/wDfAoAyLPVtOHiHVmOoWm1ktsHz1wcK+e9ai6zpm5f+JjZ9R/y3T/Gn+Un/ADxX/vgf4UeUn/PFP++B/hQBkeH9W05PD2no2oWisIQCDOoI5PvUmr6vprWcYGo2hP2qA8Tr/wA9V960/KT/AJ4p/wB+x/hR5Sf88E/79j/CgCP+2dM/6CVl/wCBCf41QOr6afECN/aNpt+xMM+euM+YvvWn5Sf88V/74H+FHlJ/zxT/AL9j/CgCL+2dMx/yErP/AMCE/wAaytC1bTkOrbtQtF3apOwzOoyPl561teUn/PBP++B/hR5Sf88E/wC+B/hQBl69q+nP4c1RV1C0ZmtJgAJ1JJ2H3q5b6xpgtYQdRs8+Wv8Ay3X0HvVjy0/54p/37H+FHlp/zxX/AL9j/CgDJ1HV9ObVNGI1C0IW4kJInXj9y49a0f7Z0z/oJWf/AIEJ/jUvlJ/zwX/vgf4UeUn/ADxX/vgf4UAUdOuoLnVtVe3njlT9wN0bhhnYe4rSzTAu0HbHt+i4pPm/ut+VAyTNFR/N/db8qKAPmUarqKgAaheAAYAE78frS/2tqX/QRvP/AAIf/GqdFQBc/tbUv+gjef8AgQ/+NH9ral/0Ebz/AMCH/wAap0UAXP7W1L/oI3n/AIEP/jR/a2pf9BG8/wDAh/8AGqdFAFz+1tS/6CN5/wCBD/40f2tqX/QRvP8AwIf/ABqnRQBc/tbUv+gjef8AgQ/+NH9ral/0Ebz/AMCH/wAap0UAXP7W1L/oI3n/AIEP/jR/a2pf9BG8/wDAh/8AGqdFAFz+1tS/6CN5/wCBD/40f2tqX/QRvP8AwIf/ABqnRQBc/tbUv+gjef8AgQ/+NH9ral/0Ebz/AMCH/wAap0UAXP7W1L/oI3n/AIEP/jR/a2pf9BG8/wDAh/8AGqdFAFz+1tS/6CN5/wCBD/40f2tqX/QRvP8AwIf/ABqnRQBc/tbUv+gjef8AgQ/+NH9ral/0Ebz/AMCH/wAap0UAXP7W1L/oI3n/AIEP/jR/a2pf9BG8/wDAh/8AGqdFAFz+1tS/6CN5/wCBD/40f2tqX/QRvP8AwIf/ABqnRQBc/tbUv+gjef8AgQ/+NH9ral/0Ebz/AMCH/wAap0UAXP7W1L/oI3n/AIEP/jR/a2pf9BG8/wDAh/8AGqdFAFz+1tS/6CN5/wCBD/40VTooASiiigAooooAKKKKACiiigAooooAKKKKACiiigAooooAKKKKACiiigAooooAKKKKACiiigAooooAKKKKACiiigBKKM0ZoAKKM0ZoAKKM0ZoAKKM0ZoAKKM0ZoAKKM0ZoAKKM0ZoAKKM0ZoAKKM0ZoAKKM0ZoAKKM0ZoAKKM0ZoAKKM0ZoAKKM0ZoAKKM0ZoAKKM0UAJRSZozQAtFJmjNAC0UmaM0ALRSZozQAtFJmjNAC0UmaM0ALRSZozQAtFJmjNAC0UmaM0ALRSZozQAtFJmjNAC0UmaM0ALRSZozQAtFJmjNAC0UmaM0ALRSZooAKsiwuCPuD8WFV0++v1FdfpGj3mtXyW9rbzSqZEWV4kLeWrNjcf1/KmBzH2C4/uj/AL6FH2C4/uj/AL6FdNq2kXmjXr293bzRDewjaVCvmKDjcP8APer9t4dS5s4ZxepmRC2AU+U71XH3sk/N7fnxQBxX2C4/uj/voUfYLj+6P++hXXW+gyy2f2iW4t4VZSU3yDkiRU6DJwd3UCn2Ogi8iuj9qHm2rlJY1Rjj5woIIU9fn/IetAHHfYLj+6P++hR9guP7o/76FdPJo14biaO2t5rhInKF0jPUdiDyD6ip7HQZ7iZ4rlZrZwyBQyDLFjgDBOcnBxgHpQByBsbhVJ2Dj0NV66vUtPk02YQy79xXJJQqPoM9e3P/AOuuToAWikopALRSUUALRSUUALRSUUALRSUUALRSUUALRSUUALRSUUALRSVc0rS7zWtTg06whM11O21EBx9ST2AHJNAFSivRbz4LeKLaGJ4JLG6Z2CskcpUpnuSwAIHfFU/EXwq8QeHdJfUpJLW7giG6YW7NujHrggZHuKYHDUUlFIBU++v1FdLaXUlleQ3MR+eKRZACTglTkA+3FcxUwurgADzX/OgDoLq5e7upriQ/NK7ORk4BJJwPbmtWDxJcQRQQ+UHjjiaI75WyVb7209E7cgZGOvWuK+13H/PV6Ptdx/z2agDrrbWTbR7BbgEFyrQytEVDMGIGPQqMVLD4ga38ww2NsN8hcq2WQ5x95T97GOCehyepzXGfa7j/AJ7NR9ruP+ezUwN+5lSe4eVYygc7ipcucnryeTz61Z07UTpzSMke8vtBBkKrgMG5A69OvauX+13H/PZvzo+13H/PZvzpAdHfXYvZPM8mOJgu35CTkDpnJ5IHGe+BXL1IbqdlIMrEHrzURyDg8H0oAWiggqxVgQR1B7UlAC0UlFAC0UlFAC0UlFAC0UlFAC0UlFAC0UlFAC0UlFAC12nwr1S10nx7ZyXbKkc6Pbh26KzDg/mMfjXFUZINAH2XXP8AjjVbbSPBuqXF0Vw8Dwoh/jdwVAH55/CvMvBvxiWw0wWPiGOecwriG5iAZ2A6KwPf3/OuI8aeNr/xjqQlm/c2cRP2e2U5CD1Pqx9adwOZHAAopKKQCrtLDcSFyMkdhXVyWmkKsQEcG9ifIH8MhCnAZu4Jx1Jzx0yQOSpMD0HNAHUR2ulys8Nz9ltWH+skXnY5hyQBnGA/THAJPpVVrK0mtlIhxNFGwaKKZQxxI43sxyDgBemM5B4FYXHtSYHoKYGrqWnRWwj+y+ZJksD8wfeoxiQbR8obJ4PpWfKoVgApGVU4JDZyOvH8qSOaSHd5Urx7vvbGK5+uOtM4pAdxqVrp39nXS28FusysHChVDj5gO5JGeRzkc1Vv7C1itVVbWB8XQYvEm7MRfqrA7WJG0Fei9upA5DA9BRhfQflTA7S80m1vZLOyt4YoXnuUhWUrtA3FRljngcHoOpFdZbeCNavob2CC3tVmtbkxCeVgDIQw+bkdl5zjrwK8gGFIK4BHII4Irq4viT4sitTbrqpxjb5hiQyY/wB7GSfc1UZ8orGP4hgurbxFqMN9j7Wtw3m4xgtnJPHHes2nSyyTyvLK7SSOxZnY5LE9STTKlu7GLRSUUgFopKKAFopKKAFopKKAFopKKAFopKKAFopKKAFopKKAOltI7JNGtLq5tf3MBDzMYY288+YRtDZ3bgCDtOAQp9c1na6tvHfpFA0bvHCizvFEI1aXq2FBIGMgHHcGsrAznAz60tAC0UlFAGD9uuf+ezUfbrn/AJ7NVeirAsfbrn/ns1H265/57NVeigCx9uuf+ezUfbrn/ns1V6KALH265/57NR9uuf8Ans1V6KALH265/wCezUfbrn/ns1V6KALH265/57NR9uuf+ezVXooAsfbrn/ns1H265/57NVeigCx9uuf+ezUfbrn/AJ7NVeigCx9uuf8Ans1H265/57NVeigCx9uuf+ezUfbrn/ns1V6KALH265/57NR9uuf+ezVXooAsfbrn/ns1H265/wCezVEIZSMiNyD/ALJppUqcMCCOxoAn+3XP/PZqPt1z/wA9mqvT4oZZ3CQxvI5/hRST+lAEv265/wCezUfbrn/ns1RSwywOUmjeNx/C6kH9aZQBY+3XP/PZqPt1z/z2aq4GTgVYmsLy3iEs9pPFGejPGVB/EigA+3XP/PZqKr0UAFbulCX+z1KCXb5j8pvxn5OuznpmsKlycYycDtQB1VqHOpFZFwz220PKDvHzHaPXkDFZ3iBfLkt0KlTtJbjHU/zxWQJZACA7AEYIB6ikLsVCliVHQZ4FAHRTJapaPvXEODtwhIxk4IIXGcbTnOc5z6Ubdl5F5sEIj+1qlvmNcNEQc49R93n1Nc5k4xnikzQBvRwQRyabOipIzGJZQVBVM+oPUnrntj1qCPT4ZBbAxS7ZSC04YBQSxGzpjPb6+1ZFGTjHagC5qFukBhKxvC0ibmhc5KckfXnGeap1PFdzwKyxyFQ3X3qCgAooooAKKKKACiiigAooooAKKKKACrelIsmsWSOoZGuIwwPQjcKqVLbTtbXUNwgBaJw4B6ZBzQB1l2ddkkhEU+pQNK8rvLJMVhEYbgjH3QB6+2Kz/EkU6WemNdTLcTskn+kBt3mJu+U57jB780lxrWn3bXDTR6pi5fzJkF4NrN26p27Vnajfw3MVtb20LxW9urBBI+9iWOSScAfpQBQrrrWNLXTljV5kgjsReXAt22STszYALdlAI/WuRrb0/W0hihS4NxHLbqVhubZgHCHkowPDLkmgDTvoVewkt3kuJYf7PW9ia5O54XL42g+hBxjvwa5GtTU9XmuoxbR3t3NbcEi4wGJyT27c8DNZdAG3orR2dlc6iciVJY4UcDJiDZLOAf4sLgfWrzyXGlfa7yV9SMErD7ILpCY7lCeRJn1XmsPTr8WZljliE9rOu2aInGQDkEHsQehq+NQ0uDy5EF/dtDzDDdMPLQ++DyPbjNAFHWbSOy1i6t4c+Wkh2g9QOoH4ZxRVWeaS5nknlYvJIxZmPcnrRQBHRRRQAUUUUAFFFFABRRRQAUUUUAFFFFABRRRQAUUUUAFFFFABRRRQAUUUUAFFFFABRRRQAUUUUAFFFFABRRRQB//Z;" vertex="1" parent="1">
          <mxGeometry x="70" y="170" width="248" height="551" as="geometry" />
        </mxCell>
      </root>
    </mxGraphModel>
  </diagram>
</mxfile>
